/* XPM */
static char *_0f92b3289214fbc9c1a2f65366506e7[] = {
/* columns rows colors chars-per-pixel */
"32 32 43 1 ",
"  c #2E3293",
". c #2C3797",
"X c #2C3898",
"o c #2A3D9C",
"O c #2A3E9C",
"+ c #1F5BB1",
"@ c #2744A0",
"# c #254AA5",
"$ c #234FA9",
"% c #2350A9",
"& c #2155AD",
"* c #2156AD",
"= c #1D61B6",
"- c #1D62B6",
"; c #1B67BA",
": c #1A68BA",
"> c #186DBF",
", c #1673C3",
"< c #137AC8",
"1 c #147AC8",
"2 c #117FCD",
"3 c #127FCC",
"4 c #0F84D0",
"5 c #0F85D0",
"6 c #0F85D1",
"7 c #0D8BD5",
"8 c #0E8BD5",
"9 c #1085D1",
"0 c #0B91D9",
"q c #0B92DA",
"w c #0996DD",
"e c #0996DE",
"r c #0997DE",
"t c #069CE2",
"y c #079CE2",
"u c #069DE2",
"i c #079DE2",
"p c #04A2E6",
"a c #04A3E6",
"s c #04A3E7",
"d c #02A9EB",
"f c #00AEEF",
"g c None",
/* pixels */
"gggggggggggggggggggggggggggggggg",
"gggggggggggggggggggggggggggggggg",
"ggggggggggggggffffgggggggggggggg",
"gggggggggggggfffffgggggggggggggg",
"gggggggggggffffffggggggggggggggg",
"gggggggggffffffggggggggggggggggg",
"gggggggffffffggggggggggggggggggg",
"gggggfffffffgggggggggggggggggggg",
"ggggfffffffffggggggggggggfffgggg",
"gggddddddddgggggggggggggdddddggg",
"gggsssssssssgggggggsggsssssssggg",
"ggggitttttttgttggttttttttttttggg",
"ggggggrrrrrrrrrwrrrrrrwwrrrrrggg",
"gggggggqqqqq000qqq8qqq000qqqqggg",
"ggggggggg888777777887777g7888ggg",
"ggggggggg9554444555555ggg5555ggg",
"ggggggggg333333343333gggggg33ggg",
"ggggggggggg<111111111gggggg11ggg",
"ggggggggggggg,,,,,,,,gggggg,,ggg",
"ggggggggggggg>>>>>>>>gggggg>>ggg",
"ggggggggggggg:;;;;;;;gggggg;;ggg",
"ggg===gggggggg=======gggggg==ggg",
"ggg++++gggggg++++++g+gggggg++ggg",
"gggg&&&&&gg&g&&&&&&gggggggg&gggg",
"ggggg%%%%%$%%%$%%%%ggggggggggggg",
"ggggggg############ggggggggggggg",
"ggggggggg@@@@@@@@@@ggggggggggggg",
"gggggggggggOOOOOOOOggggggggggggg",
"ggggggggggggX......ggggggggggggg",
"gggggggggggggg    gggggggggggggg",
"gggggggggggggggggggggggggggggggg",
"gggggggggggggggggggggggggggggggg"
};
