/* XPM */
static char *_99b1cdea26f4d8f837afcd944d52840[] = {
/* columns rows colors chars-per-pixel */
"64 64 97 2 ",
"   c #2E3192",
".  c #2D3293",
"X  c #2D3393",
"o  c #2C3595",
"O  c #2B3898",
"+  c #2B3998",
"@  c #2A3B9A",
"#  c #2A3C9A",
"$  c #293E9C",
"%  c #293F9C",
"&  c #28419E",
"*  c #28429E",
"=  c #1F59B0",
"-  c #1F5AB0",
";  c #1E5BB2",
":  c #1E5CB2",
">  c #1E5DB2",
",  c #1E5DB3",
"<  c #1D5FB4",
"1  c #1D5FB5",
"2  c #2745A0",
"3  c #2745A1",
"4  c #2648A3",
"5  c #254AA5",
"6  c #244DA7",
"7  c #2250A9",
"8  c #2350A9",
"9  c #2351A9",
"0  c #2251AA",
"q  c #2153AB",
"w  c #2253AB",
"e  c #2056AD",
"r  c #2056AE",
"t  c #2057AE",
"y  c #1D60B5",
"u  c #1C61B6",
"i  c #1C62B6",
"p  c #1C62B7",
"a  c #1B65B9",
"s  c #1A68BB",
"d  c #1A69BB",
"f  c #196BBD",
"g  c #186DBF",
"h  c #186EBF",
"j  c #176FC0",
"k  c #1770C1",
"l  c #1671C2",
"z  c #1573C4",
"x  c #1574C4",
"c  c #1477C6",
"v  c #1478C7",
"b  c #137AC8",
"n  c #127CCA",
"m  c #127DCA",
"M  c #127DCB",
"N  c #117FCC",
"B  c #117FCD",
"V  c #1180CD",
"C  c #1082CF",
"Z  c #1083CF",
"A  c #0F85D1",
"S  c #0F86D1",
"D  c #0E88D3",
"F  c #0E89D3",
"G  c #0D8BD5",
"H  c #0D8CD5",
"J  c #0D8CD6",
"K  c #0C8FD7",
"L  c #0C8FD8",
"P  c #0B92DA",
"I  c #0994DC",
"U  c #0995DC",
"Y  c #0A94DC",
"T  c #0A95DC",
"R  c #0897DE",
"E  c #079AE0",
"W  c #079AE1",
"Q  c #079BE1",
"!  c #069DE2",
"~  c #069DE3",
"^  c #069EE3",
"/  c #05A0E4",
"(  c #05A0E5",
")  c #05A1E5",
"_  c #04A3E7",
"`  c #04A4E7",
"'  c #03A6E9",
"]  c #03A7E9",
"[  c #03A7EA",
"{  c #02A9EB",
"}  c #02A9EC",
"|  c #02AAEC",
" . c #01ACED",
".. c #01ACEE",
"X. c #01ADEE",
"o. c #00AEEF",
"O. c None",
/* pixels */
"O.O.O.O.O.O.O.O.O.O.O.O.O.O.O.O.O.O.O.O.O.O.O.O.O.O.O.O.O.O.O.O.O.O.O.O.O.O.O.O.O.O.O.O.O.O.O.O.O.O.O.O.O.O.O.O.O.O.O.O.O.O.O.O.",
"O.O.O.O.O.O.O.O.O.O.O.O.O.O.O.O.O.O.O.O.O.O.O.O.O.O.O.O.O.O.O.O.O.O.O.O.O.O.O.O.O.O.O.O.O.O.O.O.O.O.O.O.O.O.O.O.O.O.O.O.O.O.O.O.",
"O.O.O.O.O.O.O.O.O.O.O.O.O.O.O.O.O.O.O.O.O.O.O.O.O.O.O.O.O.O.O.O.O.O.O.O.O.O.O.O.O.O.O.O.O.O.O.O.O.O.O.O.O.O.O.O.O.O.O.O.O.O.O.O.",
"O.O.O.O.O.O.O.O.O.O.O.O.O.O.O.O.O.O.O.O.O.O.O.O.O.O.O.O.O.O.O.o.o.o.O.O.O.O.O.O.O.O.O.O.O.O.O.O.O.O.O.O.O.O.O.O.O.O.O.O.O.O.O.O.",
"O.O.O.O.O.O.O.O.O.O.O.O.O.O.O.O.O.O.O.O.O.O.O.O.O.O.O.O.O.o.o.o.o.o.o.O.O.O.O.O.O.O.O.O.O.O.O.O.O.O.O.O.O.O.O.O.O.O.O.O.O.O.O.O.",
"O.O.O.O.O.O.O.O.O.O.O.O.O.O.O.O.O.O.O.O.O.O.O.O.O.O.O.o.o.o.o.o.o.o.o.o.o.O.O.O.O.O.O.O.O.O.O.O.O.O.O.O.O.O.O.O.O.O.O.O.O.O.O.O.",
"O.O.O.O.O.O.O.O.O.O.O.O.O.O.O.O.O.O.O.O.O.O.O.O.O.o.o.o.o.o.o.o.o.o.o.o.o.O.O.O.O.O.O.O.O.O.O.O.O.O.O.O.O.O.O.O.O.O.O.O.O.O.O.O.",
"O.O.O.O.O.O.O.O.O.O.O.O.O.O.O.O.O.O.O.O.O.O.O.O.o.o.o.o.o.o.o.o.o.o.o.O.O.O.O.O.O.O.O.O.O.O.O.O.O.O.O.O.O.O.O.O.O.O.O.O.O.O.O.O.",
"O.O.O.O.O.O.O.O.O.O.O.O.O.O.O.O.O.O.O.O.O.O.o.o.o.o.o.o.o.o.o.o.o.o.O.O.O.O.O.O.O.O.O.O.O.O.O.O.O.O.O.O.O.O.O.O.O.O.O.O.O.O.O.O.",
"O.O.O.O.O.O.O.O.O.O.O.O.O.O.O.O.O.O.O.O.o.o.o.o.o.o.o.o.o.o.o.o.O.O.O.O.O.O.O.O.O.O.O.O.O.O.O.O.O.O.O.O.O.O.O.O.O.O.O.O.O.O.O.O.",
"O.O.O.O.O.O.O.O.O.O.O.O.O.O.O.O.O.O.O.o.o.o.o.o.o.o.o.o.o.o.O.O.O.O.O.O.O.O.O.O.O.O.O.O.O.O.O.O.O.O.O.O.O.O.O.O.O.O.O.O.O.O.O.O.",
"O.O.O.O.O.O.O.O.O.O.O.O.O.O.O.O.O.o.o.o.o.o.o.o.o.o.o.o.O.O.O.O.O.O.O.O.O.O.O.O.O.O.O.O.O.O.O.O.O.O.O.O.O.O.O.O.O.O.O.O.O.O.O.O.",
"O.O.O.O.O.O.O.O.O.O.O.O.O.O.O.o.o.o.o.o.o.o.o.o.o.o.o.O.O.O.O.O.O.O.O.O.O.O.O.O.O.O.O.O.O.O.O.O.O.O.O.O.O.O.O.O.O.O.O.O.O.O.O.O.",
"O.O.O.O.O.O.O.O.O.O.O.O.O.o.o.o.o.o.o.o.o.o.o.o.o.O.O.O.O.O.o.o.O.O.O.O.O.O.O.O.O.O.O.O.O.O.O.O.O.O.O.O.O.O.O.O.O.O.O.O.O.O.O.O.",
"O.O.O.O.O.O.O.O.O.O.O.O.o.o.o.o.o.o.o.o.o.o.o.O.O.O.O.O.o.o.O.O.O.O.O.O.O.O.O.O.O.O.O.O.O.O.O.O.O.O.O.O.O.O.O.O.O.O.O.O.O.O.O.O.",
"O.O.O.O.O.O.O.O.O.O.o.o.o.o.o.o.o.o.o.o.o.o.o.O.O.O.o.o.O.O.O.O.O.o.o.O.O.O.O.O.O.O.O.O.O.O.O.O.O.O.O.O.o.o.O.O.O.O.O.O.O.O.O.O.",
"O.O.O.O.O.O.O.O.o.o.o.o.o.o.o.o.o.o.o.o.o.o.o.o.o.o.O.O.O.O.O.o.o.O.O.O.O.O.o.O.O.O.O.O.o.o.O.O.O.O.O.o.o.o.o.o.O.O.O.O.O.O.O.O.",
"O.O.O.O.O.O.O.o.....o...} o.o.o...o.............o.O.O.O.O.O.o.O.O.O.O.O.....O.O.O.O.o.o.O.O.O.O.O.o...o...o.........O.O.O.O.O.O.",
"O.O.O.O.O.O.O.} } } } } } } } } } } } } } } ..O.O.O.O.O.{ } O.O.O.O.} } O.O.O.O.O.{ } O.O.O.O.} } } { } [ } } [ } } O.O.O.O.O.O.",
"O.O.O.O.O.O.O.' ' ' ' [ ' ' ' ' ' ' ' ' ' ' O.O.O.O.' ' O.O.O.O.O.{ O.O.O.O.O.' ' O.O.O.O.O.' ' ' ' ' ' ' ' [ ' [ ' O.O.O.O.O.O.",
"O.O.O.O.O.O.O._ _ _ _ _ _ _ _ _ _ _ _ _ ` _ _ _ _ ` O.O.O.O.O._ ` O.O.O.O._ _ _ O.O.O.O.' _ _ _ _ _ _ _ _ _ _ _ _ _ O.O.O.O.O.O.",
"O.O.O.O.O.O.O._ ( ( ( ( ^ ^ _ ^ ( ( ( ( ) ) ( ) O.O.O.O.O.! _ O.O.O.O.O.( _ ( ( _ O.! _ ^ ^ ^ _ ( ) ( ( ( ( ( ( ) ) O.O.O.O.O.O.",
"O.O.O.O.O.O.O.! ^ ~ ^ ^ ^ ^ ~ ~ ( W ( W E ( ~ ~ O.O.O.! ! O.O.O.O.O.~ ~ ( W E ( ~ ( ~ ~ ^ ^ ! ! ~ ( E ( W ( W ( ( W O.O.O.O.O.O.",
"O.O.O.O.O.O.O.O.W W W W W E E E W W W W E E E E E E E ! Q O.O.O.E E E E W W E E E E E E Q Q Q R E E E E E W W W W E O.O.O.O.O.O.",
"O.O.O.O.O.O.O.O.O.O.R R R R R R R E R R R R R R R R R R U R R R E Y R R R R R R R R R R R R R R R R R R R R R R R R O.O.O.O.O.O.",
"O.O.O.O.O.O.O.O.O.O.O.O.P R R Y Y Y R Y T R T T T T T T T Y T U R Y R Y P R T T T T T T T T T T T T T R T T R P R Y O.O.O.O.O.O.",
"O.O.O.O.O.O.O.O.O.O.O.O.O.O.P P P P P P P P P P K Y Y Y Y Y Y T P P P P P P P P P P P P Y T Y Y Y P P P P P P P P P O.O.O.O.O.O.",
"O.O.O.O.O.O.O.O.O.O.O.O.O.O.O.O.J L J L J P K J H Y H H K K J H L L L L P J P J K K K K H K H K J J J P K K P J L L O.O.O.O.O.O.",
"O.O.O.O.O.O.O.O.O.O.O.G O.O.O.O.O.J J J J H H H J J H H H H H H H H H H J J H H J J J H J J O.J J O.J J J J J J J J O.O.O.O.O.O.",
"O.O.O.O.O.O.O.O.O.O.O.O.D D O.O.O.O.O.F F F F F D D D D D D D D F F F F D D D D D D D H D O.O.D O.O.D D F F F F F F O.O.O.O.O.O.",
"O.O.O.O.O.O.O.O.O.O.O.O.O.O.S S O.O.O.S S S S S D S S S S S S S S S S S S S S S S S S S S O.O.S O.O.D S S S S S S S O.O.O.O.O.O.",
"O.O.O.O.O.O.O.O.O.O.O.O.O.O.O.O.S C C C C C C C Z Z Z Z Z Z Z Z C C C C C C C S C C C C C O.O.C O.O.C S O.C C C C C O.O.O.O.O.O.",
"O.O.O.O.O.O.O.O.O.O.O.O.O.O.O.O.O.O.B B B B B B B B B B B B B B m C C m C C m B B B O.C B O.O.B O.O.B O.O.O.B C B B O.O.O.O.O.O.",
"O.O.O.O.O.O.O.O.O.O.O.O.O.O.O.O.O.O.O.m m m m m m m m m m m m m m b m m b m m m m O.O.O.m O.O.m O.O.m O.O.O.b B b b O.O.O.O.O.O.",
"O.O.O.O.O.O.O.O.O.O.O.O.O.O.O.O.O.O.O.O.O.b b b b b b b b b b b b b b b b b b b m O.O.O.b O.O.b O.O.b O.O.O.b b b b O.O.O.O.O.O.",
"O.O.O.O.O.O.O.O.O.O.O.O.O.O.O.O.b x O.O.O.O.O.b b x b x b x b x b x b x b x b x x O.O.O.x O.O.b O.O.x O.O.O.b x b b O.O.O.O.O.O.",
"O.O.O.O.O.O.O.O.O.O.O.O.O.O.O.O.O.O.x x O.O.O.O.O.x x x x x x x x x x x x x x x x O.O.O.x O.O.x O.O.x O.O.O.x x x x O.O.O.O.O.O.",
"O.O.O.O.O.O.O.O.O.O.O.O.O.O.O.O.O.O.O.O.l j O.O.O.O.l l l l l l l l l l l l l l l O.O.O.l O.O.l O.O.j O.O.O.z j j j O.O.O.O.O.O.",
"O.O.O.O.O.O.O.O.O.O.O.O.O.O.O.O.j O.O.O.O.j h O.O.O.O.h h h h h h h h h h h h h h O.O.O.h O.O.h O.O.j O.O.O.j h j j O.O.O.O.O.O.",
"O.O.O.O.O.O.O.O.O.O.O.O.O.O.O.O.O.f O.O.O.O.O.f f O.O.f f f f f f f f f f f f f f O.O.O.f O.O.f O.O.h O.O.O.f f f h O.O.O.O.O.O.",
"O.O.O.O.O.O.O.O.O.O.O.O.O.O.O.O.O.O.s s O.O.O.O.O.s s s s s s s s s s s s s s s s O.O.O.s O.O.s O.O.O.O.O.O.s s a f O.O.O.O.O.O.",
"O.O.O.O.O.O.p s s O.O.O.O.O.O.O.O.O.O.O.a a O.O.O.O.O.a a a a a a a a a a a a a a O.O.O.s O.O.a O.O.O.O.O.O.a a a a O.O.O.O.O.O.",
"O.O.O.O.O.O.O.p p p O.O.O.O.O.O.p O.O.O.O.O.p p O.O.O.O.p p p p p p p p p p p p p O.O.O.p O.O.O.O.O.O.O.O.O.p p p p O.O.O.O.O.O.",
"O.O.O.O.O.O.O.< < < < y O.O.O.O.O.p < O.O.O.O.O.p O.O.O.< < < < < < < < p : < p < O.O.O.< O.O.O.O.O.O.O.O.O.< < , p O.O.O.O.O.O.",
"O.O.O.O.O.O.O.: : : : : : : O.O.O.O.O.: = O.O.O.O.: : O.: : : : : : : : : : O.O.: O.O.O.O.O.O.O.O.O.O.O.O.O.: : : : O.O.O.O.O.O.",
"O.O.O.O.O.O.O.= = = = = = = = = O.O.O.O.= = O.O.O.O.= = = = = r = = = = = = O.O.= O.O.O.O.O.O.O.O.O.O.O.O.O.= = = = O.O.O.O.O.O.",
"O.O.O.O.O.O.O.r r r r r r r r t t O.O.O.O.O.t t O.O.O.r r r r r r r r r r r O.O.r O.O.O.O.O.O.O.O.O.O.O.O.O.r r r O.O.O.O.O.O.O.",
"O.O.O.O.O.O.O.O.w w q w w w w w w w w O.O.O.O.r q w w q w w w w w w w w w q O.O.w O.O.O.O.O.O.O.O.O.O.O.O.w w w O.O.O.O.O.O.O.O.",
"O.O.O.O.O.O.O.O.O.O.w 6 w 6 w 6 w 6 w w 6 O.O.w 6 w 6 w w 6 w w 6 w 6 w 6 w O.O.w O.O.O.O.O.O.O.O.O.O.O.O.O.O.O.O.O.O.O.O.O.O.O.",
"O.O.O.O.O.O.O.O.O.O.O.O.6 6 6 6 6 6 6 6 6 6 6 6 6 6 6 5 6 6 5 6 6 6 6 6 6 6 O.O.5 O.O.O.O.O.O.O.O.O.O.O.O.O.O.O.O.O.O.O.O.O.O.O.",
"O.O.O.O.O.O.O.O.O.O.O.O.O.5 5 5 5 5 5 5 5 5 5 5 5 5 5 5 5 5 5 5 5 5 5 5 5 5 O.O.5 O.O.O.O.O.O.O.O.O.O.O.O.O.O.O.O.O.O.O.O.O.O.O.",
"O.O.O.O.O.O.O.O.O.O.O.O.O.O.O.4 4 4 4 4 4 4 4 4 4 4 4 4 4 4 4 4 4 4 4 4 4 4 O.O.O.O.O.O.O.O.O.O.O.O.O.O.O.O.O.O.O.O.O.O.O.O.O.O.",
"O.O.O.O.O.O.O.O.O.O.O.O.O.O.O.O.O.3 * 3 3 3 3 3 3 3 3 3 3 3 3 3 3 3 3 3 3 3 O.O.O.O.O.O.O.O.O.O.O.O.O.O.O.O.O.O.O.O.O.O.O.O.O.O.",
"O.O.O.O.O.O.O.O.O.O.O.O.O.O.O.O.O.O.O.* * * * * * * * * * * * * * * * * * * O.O.O.O.O.O.O.O.O.O.O.O.O.O.O.O.O.O.O.O.O.O.O.O.O.O.",
"O.O.O.O.O.O.O.O.O.O.O.O.O.O.O.O.O.O.O.O.% % % % % % % % % % % % % % % % % % O.O.O.O.O.O.O.O.O.O.O.O.O.O.O.O.O.O.O.O.O.O.O.O.O.O.",
"O.O.O.O.O.O.O.O.O.O.O.O.O.O.O.O.O.O.O.O.O.O.# @ @ @ @ @ @ @ @ @ @ @ @ @ @ @ O.O.O.O.O.O.O.O.O.O.O.O.O.O.O.O.O.O.O.O.O.O.O.O.O.O.",
"O.O.O.O.O.O.O.O.O.O.O.O.O.O.O.O.O.O.O.O.O.O.O.O.@ @ O @ o @ o @ @ o @ O O @ O.O.O.O.O.O.O.O.O.O.O.O.O.O.O.O.O.O.O.O.O.O.O.O.O.O.",
"O.O.O.O.O.O.O.O.O.O.O.O.O.O.O.O.O.O.O.O.O.O.O.O.O.O.  o o o o o o o o o   o O.O.O.O.O.O.O.O.O.O.O.O.O.O.O.O.O.O.O.O.O.O.O.O.O.O.",
"O.O.O.O.O.O.O.O.O.O.O.O.O.O.O.O.O.O.O.O.O.O.O.O.O.O.O.o     . .       o   O.O.O.O.O.O.O.O.O.O.O.O.O.O.O.O.O.O.O.O.O.O.O.O.O.O.O.",
"O.O.O.O.O.O.O.O.O.O.O.O.O.O.O.O.O.O.O.O.O.O.O.O.O.O.O.O.O.            O.O.O.O.O.O.O.O.O.O.O.O.O.O.O.O.O.O.O.O.O.O.O.O.O.O.O.O.O.",
"O.O.O.O.O.O.O.O.O.O.O.O.O.O.O.O.O.O.O.O.O.O.O.O.O.O.O.O.O.O.O.. . O.O.O.O.O.O.O.O.O.O.O.O.O.O.O.O.O.O.O.O.O.O.O.O.O.O.O.O.O.O.O.",
"O.O.O.O.O.O.O.O.O.O.O.O.O.O.O.O.O.O.O.O.O.O.O.O.O.O.O.O.O.O.O.O.O.O.O.O.O.O.O.O.O.O.O.O.O.O.O.O.O.O.O.O.O.O.O.O.O.O.O.O.O.O.O.O.",
"O.O.O.O.O.O.O.O.O.O.O.O.O.O.O.O.O.O.O.O.O.O.O.O.O.O.O.O.O.O.O.O.O.O.O.O.O.O.O.O.O.O.O.O.O.O.O.O.O.O.O.O.O.O.O.O.O.O.O.O.O.O.O.O.",
"O.O.O.O.O.O.O.O.O.O.O.O.O.O.O.O.O.O.O.O.O.O.O.O.O.O.O.O.O.O.O.O.O.O.O.O.O.O.O.O.O.O.O.O.O.O.O.O.O.O.O.O.O.O.O.O.O.O.O.O.O.O.O.O."
};
