/* XPM */
static char *_bda35d01be44f749c6c5fb45c6bcea2[] = {
/* columns rows colors chars-per-pixel */
"16 16 16 1 ",
"  c #2D3494",
". c #28409D",
"X c #244CA6",
"o c #244CA7",
"O c #2058AF",
"+ c #1B64B8",
"@ c #1770C1",
"# c #137CC9",
"$ c #137CCA",
"% c #0E87D2",
"& c #0E88D2",
"* c #0A93DB",
"= c #059FE4",
"- c #01ABED",
"; c #00AEEF",
": c None",
/* pixels */
"::::::::::::::::",
":::::::;;:::::::",
":::::;;;::::::::",
":::;;;::::::::::",
"::----::::::--::",
"::====:::======:",
":::************:",
"::::%&&&&&&:&&&:",
":::::######::##:",
"::::::@@@@:::@@:",
":::::::+++:::++:",
"::OO:::OOO:::OO:",
":::oXXXXXX::::::",
":::::.....::::::",
":::::::  :::::::",
"::::::::::::::::"
};
